<svg width="19" height="15" viewBox="0 0 19 15" fill="none" xmlns="http://www.w3.org/2000/svg">
<path fill-rule="evenodd" clip-rule="evenodd" d="M1.15989 6.53108C0.607796 6.54557 0.171631 7.00489 0.185691 7.55699C0.199751 8.1091 0.658708 8.54492 1.2108 8.53043L17.2053 8.11063C17.7574 8.09614 18.1936 7.63682 18.1795 7.08471C18.1654 6.53261 17.7065 6.09679 17.1544 6.11128L1.15989 6.53108ZM0.340754 13.6464C0.326695 13.0943 0.762859 12.635 1.31495 12.6205L13.3108 12.3057C13.8629 12.2912 14.3219 12.727 14.3359 13.2791C14.35 13.8312 13.9138 14.2905 13.3617 14.305L1.36587 14.6199C0.813771 14.6344 0.354814 14.1985 0.340754 13.6464ZM0.0306279 1.46755C0.0165683 0.915445 0.452733 0.456128 1.00483 0.441637L7.00276 0.284211C7.55486 0.269721 8.01381 0.705544 8.02787 1.25765C8.04193 1.80976 7.60577 2.26907 7.05367 2.28356L1.05574 2.44099C0.503644 2.45548 0.0446875 2.01966 0.0306279 1.46755Z" fill="#FEFEFE"/>
</svg>
