<svg width="46" height="40" viewBox="0 0 46 40" fill="none" xmlns="http://www.w3.org/2000/svg">
<path d="M0.0830078 39.5729V28.7222H4.24967V35.2326H10.4997V39.5729H0.0830078ZM35.4997 39.5729V35.2326H41.7497V28.7222H45.9163V39.5729H35.4997ZM6.33301 33.0625V7.02079H10.4997V33.0625H6.33301ZM12.583 33.0625V7.02079H14.6663V33.0625H12.583ZM18.833 33.0625V7.02079H22.9997V33.0625H18.833ZM25.083 33.0625V7.02079H31.333V33.0625H25.083ZM33.4163 33.0625V7.02079H35.4997V33.0625H33.4163ZM37.583 33.0625V7.02079H39.6663V33.0625H37.583ZM0.0830078 11.3611V0.510376H10.4997V4.85065H4.24967V11.3611H0.0830078ZM41.7497 11.3611V4.85065H35.4997V0.510376H45.9163V11.3611H41.7497Z" fill="#0091F7"/>
</svg>
