<svg width="64" height="64" viewBox="0 0 64 64" fill="none" xmlns="http://www.w3.org/2000/svg">
<rect x="0.5" y="0.5" width="63" height="63" rx="3.5" fill="#E8F4FF"/>
<rect x="0.5" y="0.5" width="63" height="63" rx="3.5" stroke="#0689FF" stroke-dasharray="10 10"/>
<path fill-rule="evenodd" clip-rule="evenodd" d="M27.8204 17C26.8173 17 25.8806 17.5013 25.3242 18.3359L23.0117 21.8047C22.8262 22.0829 22.514 22.25 22.1796 22.25H16.5C14.8431 22.25 13.5 23.5931 13.5 25.25V44C13.5 45.6569 14.8431 47 16.5 47H47.5C49.1569 47 50.5 45.6569 50.5 44V25.25C50.5 23.5931 49.1569 22.25 47.5 22.25H41.8204C41.486 22.25 41.1738 22.0829 40.9883 21.8047L38.6758 18.3359C38.1194 17.5013 37.1827 17 36.1796 17H27.8204ZM26.9883 19.4453C27.1738 19.1671 27.486 19 27.8204 19H36.1796C36.514 19 36.8262 19.1671 37.0117 19.4453L39.3242 22.9141C39.8806 23.7487 40.8173 24.25 41.8204 24.25H47.5C48.0523 24.25 48.5 24.6977 48.5 25.25V44C48.5 44.5523 48.0523 45 47.5 45H16.5C15.9477 45 15.5 44.5523 15.5 44V25.25C15.5 24.6977 15.9477 24.25 16.5 24.25H22.1796C23.1827 24.25 24.1194 23.7487 24.6758 22.9141L26.9883 19.4453ZM27.75 33.75C27.75 31.4028 29.6528 29.5 32 29.5C34.3472 29.5 36.25 31.4028 36.25 33.75C36.25 36.0972 34.3472 38 32 38C29.6528 38 27.75 36.0972 27.75 33.75ZM32 27.5C28.5482 27.5 25.75 30.2982 25.75 33.75C25.75 37.2018 28.5482 40 32 40C35.4518 40 38.25 37.2018 38.25 33.75C38.25 30.2982 35.4518 27.5 32 27.5Z" fill="#0689FF"/>
</svg>
