<svg width="158" height="157" viewBox="0 0 158 157" fill="none" xmlns="http://www.w3.org/2000/svg">
<g clip-path="url(#clip0_538_21438)">
<path d="M116.852 96.2084L137.544 75.733C145.273 68.0047 160.136 77.7549 152.106 87.2021L127.05 116.68C126.069 117.834 124.942 118.857 123.699 119.722C119.66 122.303 114.849 123.163 110.11 123.163H72.927C70.2379 123.163 67.55 123.319 64.8789 123.629L54.1848 124.83L32.0037 103.305C32.0037 103.305 44.5867 79.5432 69.2701 86.3732C73.8865 87.6512 78.6634 88.2597 83.4534 88.2597H107.89C119.394 88.2597 119.485 106.538 107.794 106.538H86.521" fill="#FFCDAC"/>
<path d="M39.6146 152.84L60.7165 131.191C60.7225 131.185 60.7225 131.175 60.7165 131.169L24.9102 96.4215C24.9042 96.4155 24.8946 96.4167 24.8886 96.4215L3.58789 118.536L39.6146 152.84Z" fill="#6BD5E1"/>
<path d="M28.9087 31.8357C22.2201 32.4693 16.9868 38.1014 16.9868 44.9565V58.9901C16.9868 61.4133 18.9512 63.3789 21.3756 63.3789H51.4695C53.8939 63.3789 55.8583 61.4133 55.8583 58.9901V44.9565C55.8583 38.0967 50.6179 32.4597 43.9209 31.8345" fill="#FFB677"/>
<path d="M51.1484 19.1217C51.1484 27.2548 44.5556 33.8476 36.4225 33.8476C28.2893 33.8476 21.6965 27.2548 21.6965 19.1217C21.6965 10.9885 28.2893 4.39453 36.4225 4.39453C44.5556 4.39453 51.1484 10.9885 51.1484 19.1217Z" fill="#FFCDAC"/>
<path d="M67.7812 31.8357C61.0926 32.4693 55.8582 38.1014 55.8582 44.9565V58.9901C55.8582 61.4133 57.8238 63.3789 60.2481 63.3789H90.3421C92.7664 63.3789 94.7309 61.4133 94.7309 58.9901V44.9565C94.7309 38.0967 89.4892 32.4597 82.7934 31.8345" fill="#FF8364"/>
<path d="M90.0212 19.1217C90.0212 27.2548 83.4284 33.8476 75.2953 33.8476C67.1621 33.8476 60.5681 27.2548 60.5681 19.1217C60.5681 10.9885 67.1621 4.39453 75.2953 4.39453C83.4284 4.39453 90.0212 10.9885 90.0212 19.1217Z" fill="#FFCDAC"/>
<path d="M106.654 31.8357C99.9642 32.4693 94.731 38.1014 94.731 44.9565V58.9901C94.731 61.4133 96.6966 63.3789 99.1198 63.3789H129.214C131.638 63.3789 133.604 61.4133 133.604 58.9901V44.9565C133.604 38.0967 128.362 32.4597 121.665 31.8345" fill="#FFD98E"/>
<path d="M128.894 19.1217C128.894 27.2548 122.3 33.8476 114.167 33.8476C106.033 33.8476 99.4407 27.2548 99.4407 19.1217C99.4407 10.9885 106.033 4.39453 114.167 4.39453C122.3 4.39453 128.894 10.9885 128.894 19.1217Z" fill="#FFCDAC"/>
<path d="M153.79 73.461C151.44 71.293 148.243 69.9538 145.019 69.7861C141.357 69.5968 137.927 70.9025 135.372 73.4586L117.915 90.7323C117.57 90.1346 117.176 89.5704 116.734 89.047C114.586 86.4968 111.445 85.093 107.891 85.093H83.4535C78.8455 85.093 74.3501 84.4953 70.0931 83.3178C58.9941 80.2478 48.3911 82.4901 39.4278 89.8064C35.7829 92.7818 33.1237 96.0183 31.442 98.378L27.0604 94.1257C26.4842 93.5663 25.7033 93.2489 24.8995 93.2489C24.8923 93.2489 24.8864 93.2489 24.8792 93.2489C24.0467 93.2549 23.2418 93.6011 22.6644 94.2L1.36365 116.313C0.793494 116.905 0.48326 117.7 0.501227 118.522C0.519195 119.345 0.862968 120.125 1.45828 120.692L37.485 154.996C38.0827 155.565 38.8493 155.849 39.6147 155.849C40.4184 155.849 41.2222 155.536 41.8271 154.916L62.929 133.267C63.5051 132.675 63.8249 131.866 63.8094 131.04C63.7938 130.225 63.4524 129.44 62.8679 128.872L61.0304 127.09L65.236 126.616C67.7801 126.321 70.3674 126.171 72.9283 126.171H110.11C116.152 126.171 121.283 124.85 125.363 122.243C125.396 122.222 125.43 122.199 125.463 122.176C126.925 121.16 128.251 119.957 129.403 118.599L154.459 89.1224C158.747 84.0784 158.479 77.7839 153.79 73.461ZM39.5344 148.419L7.96721 118.361L24.9726 100.707L56.3554 131.161L39.5344 148.419ZM149.753 85.1217L124.697 114.6C123.901 115.535 122.99 116.367 121.985 117.071C118.922 119.01 114.927 119.995 110.11 119.995H72.9271C70.1302 119.995 67.3022 120.159 64.534 120.481L55.2893 121.519L35.9326 102.734C37.2778 100.74 39.7512 97.5167 43.3339 94.5917C50.7819 88.5115 59.2313 86.7208 68.4461 89.271C73.2398 90.5969 78.2886 91.2701 83.4535 91.2701H107.891C112.28 91.2701 113.452 95.072 113.452 97.3179C113.452 98.9589 112.925 100.521 112.006 101.604C111.009 102.776 109.592 103.37 107.794 103.37H86.5211C84.8155 103.37 83.4332 104.754 83.4332 106.46C83.4332 108.165 84.8155 109.548 86.5211 109.548H107.794C111.385 109.548 114.552 108.146 116.713 105.602C118.511 103.487 119.537 100.705 119.623 97.7323L139.728 77.8378C142.602 74.9643 147.091 75.6853 149.603 78.0019C150.901 79.1997 152.648 81.7163 149.753 85.1217Z" fill="black"/>
<path d="M76.8896 105.636C76.5003 103.975 74.8389 102.946 73.1776 103.334C71.5174 103.724 70.4861 105.385 70.8766 107.046L70.9053 107.172C71.2395 108.595 72.508 109.556 73.9094 109.556C74.143 109.556 74.3802 109.529 74.6173 109.474C76.2787 109.085 77.3088 107.422 76.9195 105.762L76.8896 105.636Z" fill="black"/>
<path d="M21.3754 66.3877H51.4693C53.1079 66.3877 54.6244 65.8559 55.8581 64.9575C57.0919 65.8559 58.6083 66.3877 60.2469 66.3877H90.342C91.9807 66.3877 93.4971 65.8559 94.7308 64.9575C95.9646 65.8559 97.481 66.3877 99.1196 66.3877H129.214C133.336 66.3877 136.69 63.0326 136.69 58.9098V44.8762C136.69 38.5732 133.163 33.098 127.883 30.397C130.441 27.3114 131.982 23.3538 131.982 19.0417C131.982 9.21839 123.99 1.22656 114.167 1.22656C104.343 1.22656 96.3515 9.21839 96.3515 19.0417C96.3515 23.3538 97.8919 27.3126 100.45 30.397C98.1686 31.566 96.2149 33.2537 94.7308 35.3008C93.2467 33.2526 91.2931 31.5648 89.0101 30.397C91.5686 27.3126 93.109 23.3538 93.109 19.0417C93.109 9.21839 85.1172 1.22656 75.2939 1.22656C65.4706 1.22656 57.4788 9.21839 57.4788 19.0417C57.4788 23.3538 59.0204 27.3126 61.5789 30.3982C59.2959 31.566 57.3422 33.2537 55.8581 35.302C54.374 33.2537 52.4204 31.566 50.1374 30.397C52.6959 27.3126 54.2363 23.3538 54.2363 19.0429C54.2363 9.21839 46.2445 1.22656 36.4212 1.22656C26.5991 1.22656 18.6073 9.21839 18.6073 19.0429C18.6073 23.3538 20.1477 27.3126 22.7062 30.3982C17.4262 33.0992 13.8975 38.5756 13.8975 44.8773V58.9098C13.8975 63.0326 17.2525 66.3877 21.3754 66.3877ZM114.168 7.4037C120.584 7.4037 125.806 12.6238 125.806 19.0417C125.806 25.4584 120.584 30.6796 114.168 30.6796C107.75 30.6796 102.53 25.4596 102.53 19.0417C102.529 12.6238 107.75 7.4037 114.168 7.4037ZM106.144 34.9403C108.557 36.1632 111.282 36.8568 114.167 36.8568C117.052 36.8568 119.777 36.1632 122.19 34.9403C126.989 35.7764 130.514 39.9124 130.514 44.8762V58.9098C130.514 59.6273 129.931 60.2106 129.214 60.2106H99.1196C98.4033 60.2106 97.82 59.6273 97.82 58.9098V44.8762C97.8188 39.9136 101.345 35.7764 106.144 34.9403ZM75.2951 7.4037C81.7118 7.4037 86.9331 12.6238 86.9331 19.0417C86.9331 25.4584 81.7118 30.6796 75.2951 30.6796C68.8772 30.6796 63.6571 25.4596 63.6571 19.0417C63.6571 12.6238 68.8772 7.4037 75.2951 7.4037ZM67.2721 34.9403C69.6845 36.1632 72.4095 36.8568 75.2951 36.8568C78.1806 36.8568 80.9044 36.1632 83.3181 34.9403C88.1165 35.7764 91.6429 39.9124 91.6429 44.8762V58.9098C91.6429 59.6273 91.0595 60.2106 90.342 60.2106H60.2481C59.5306 60.2106 58.9473 59.6273 58.9473 58.9098V44.8762C58.9473 39.9136 62.4737 35.7764 67.2721 34.9403ZM36.4224 7.4037C42.8391 7.4037 48.0604 12.6238 48.0604 19.0417C48.0604 25.4584 42.8391 30.6796 36.4224 30.6796C30.0057 30.6796 24.7844 25.4584 24.7844 19.0417C24.7844 12.6238 30.0057 7.4037 36.4224 7.4037ZM20.0746 44.8762C20.0746 39.9136 23.601 35.7764 28.3994 34.9403C30.813 36.1632 33.5368 36.8568 36.4224 36.8568C39.3079 36.8568 42.0317 36.1632 44.4453 34.9403C49.245 35.7764 52.7702 39.9124 52.7702 44.8762V58.9098C52.7702 59.6273 52.1868 60.2106 51.4693 60.2106H21.3754C20.6579 60.2106 20.0746 59.6273 20.0746 58.9098V44.8762Z" fill="black"/>
</g>
<defs>
<clipPath id="clip0_538_21438">
<rect width="157" height="157" fill="white" transform="translate(0.5)"/>
</clipPath>
</defs>
</svg>
