<svg width="152" height="152" viewBox="0 0 152 152" fill="none" xmlns="http://www.w3.org/2000/svg">
<path d="M131.928 11.7856V131.928C131.928 136.506 128.221 140.214 123.643 140.214H44.9285C49.5063 140.214 53.2142 136.506 53.2142 131.928V11.7856L63.0535 15.9285L72.8928 11.7856L82.7113 15.9285L92.5506 11.7856L102.39 15.9285L112.229 11.7856L122.089 15.9285L131.928 11.7856Z" fill="#FFEADC"/>
<path d="M131.659 134C130.748 137.583 127.496 140.214 123.643 140.214H44.9285C49.5063 140.214 53.2142 136.506 53.2142 131.928V11.7856L61.4999 15.2656V92.5714C61.4999 115.461 80.0392 134 102.928 134H131.659Z" fill="#F2CBB1"/>
<path d="M36.643 61.4998V115.357H20.0715V61.4998C20.0715 56.922 23.7794 53.2141 28.3572 53.2141C32.9351 53.2141 36.643 56.922 36.643 61.4998Z" fill="#FFEADC"/>
<path d="M31.4644 53.8355C28.4194 55.0577 26.2858 58.0198 26.2858 61.4998V115.357H20.0715V61.4998C20.0715 56.922 23.7794 53.2141 28.3572 53.2141C29.4551 53.2141 30.5115 53.4213 31.4644 53.8355Z" fill="#F2CBB1"/>
<path d="M53.2143 53.2141V131.928C53.2143 136.506 49.5065 140.214 44.9286 140.214C42.65 140.214 40.5786 139.282 39.0665 137.791C37.575 136.278 36.6429 134.207 36.6429 131.928V61.4998C36.6429 56.922 32.935 53.2141 28.3572 53.2141H53.2143Z" fill="#FEB0A3"/>
<path d="M53.2144 53.2141V131.928C53.2144 136.506 49.5065 140.214 44.9287 140.214C43.8308 140.214 42.7744 140.007 41.8215 139.593C44.8665 138.371 47.0001 135.408 47.0001 131.928V53.2141H53.2144Z" fill="#E59E95"/>
<path d="M133.076 10.0602C132.495 9.67593 131.771 9.60509 131.125 9.87603L122.079 13.681L113.033 9.87603C112.519 9.66164 111.941 9.66164 111.427 9.87603L102.386 13.681L93.3584 9.87603C92.8405 9.66164 92.2661 9.66164 91.7482 9.87603L82.7201 13.681L73.6889 9.87603C73.1752 9.66164 72.5946 9.66164 72.0807 9.87603L63.0494 13.681L54.0184 9.87603C53.3802 9.6111 52.6469 9.67573 52.0684 10.0602C51.4909 10.4444 51.1429 11.0918 51.1429 11.7857V51.1428H28.3571C22.6466 51.1428 18 55.7895 18 61.5V115.357C18 116.502 18.9276 117.429 20.0714 117.429H34.5714V131.929C34.5714 137.639 39.2181 142.286 44.9286 142.286H123.643C129.353 142.286 134 137.639 134 131.929V11.7857C134 11.0918 133.652 10.4444 133.076 10.0602ZM22.1429 61.5C22.1429 58.0732 24.9304 55.2857 28.3571 55.2857C31.7839 55.2857 34.5714 58.0732 34.5714 61.5V113.286H22.1429V61.5ZM38.7143 131.929V61.5C38.7143 59.1595 37.9044 57.0222 36.5898 55.2857H51.1429V131.929C51.1429 135.355 48.3553 138.143 44.9286 138.143C41.5018 138.143 38.7143 135.355 38.7143 131.929ZM129.857 131.929C129.857 135.355 127.07 138.143 123.643 138.143H53.1613C54.4758 136.406 55.2857 134.269 55.2857 131.929V14.905L62.2455 17.8382C62.7592 18.0526 63.3398 18.0526 63.8538 17.8382L72.885 14.0332L81.9152 17.8382C82.433 18.0526 83.0074 18.0526 83.5253 17.8382L92.5534 14.0332L101.582 17.8382C102.099 18.0526 102.676 18.0526 103.19 17.8382L112.23 14.0332L121.276 17.8382C121.79 18.0526 122.369 18.0526 122.883 17.8382L129.858 14.905L129.857 131.929Z" fill="#330505"/>
<path d="M119.5 51.1428H115.357C114.212 51.1428 113.286 52.0694 113.286 53.2143C113.286 54.3591 114.212 55.2857 115.357 55.2857H119.5C120.645 55.2857 121.571 54.3591 121.571 53.2143C121.571 52.0694 120.645 51.1428 119.5 51.1428Z" fill="#330505"/>
<path d="M98.7858 51.1428H65.643C64.4991 51.1428 63.5715 52.0694 63.5715 53.2143C63.5715 54.3591 64.4991 55.2857 65.643 55.2857H98.7858C99.9307 55.2857 100.857 54.3591 100.857 53.2143C100.857 52.0694 99.9307 51.1428 98.7858 51.1428Z" fill="#330505"/>
<path d="M111.214 34.5715H73.9286C72.7848 34.5715 71.8572 35.4981 71.8572 36.643C71.8572 37.7878 72.7848 38.7144 73.9286 38.7144H111.214C112.359 38.7144 113.286 37.7878 113.286 36.643C113.286 35.4981 112.359 34.5715 111.214 34.5715Z" fill="#330505"/>
<path d="M65.643 63.5716H82.2144C83.3593 63.5716 84.2858 62.645 84.2858 61.5001C84.2858 60.3553 83.3593 59.4287 82.2144 59.4287H65.643C64.4991 59.4287 63.5715 60.3553 63.5715 61.5001C63.5715 62.645 64.4991 63.5716 65.643 63.5716Z" fill="#330505"/>
<path d="M119.5 71.8572H115.357C114.212 71.8572 113.286 72.7837 113.286 73.9286C113.286 75.0735 114.212 76 115.357 76H119.5C120.645 76 121.571 75.0735 121.571 73.9286C121.571 72.7837 120.645 71.8572 119.5 71.8572Z" fill="#330505"/>
<path d="M98.7858 71.8572H65.643C64.4991 71.8572 63.5715 72.7837 63.5715 73.9286C63.5715 75.0735 64.4991 76 65.643 76H98.7858C99.9307 76 100.857 75.0735 100.857 73.9286C100.857 72.7837 99.9307 71.8572 98.7858 71.8572Z" fill="#330505"/>
<path d="M65.643 84.2857H82.2144C83.3593 84.2857 84.2858 83.3591 84.2858 82.2143C84.2858 81.0694 83.3593 80.1428 82.2144 80.1428H65.643C64.4991 80.1428 63.5715 81.0694 63.5715 82.2143C63.5715 83.3591 64.4991 84.2857 65.643 84.2857Z" fill="#330505"/>
<path d="M119.5 92.5715H115.357C114.212 92.5715 113.286 93.4981 113.286 94.643C113.286 95.7878 114.212 96.7144 115.357 96.7144H119.5C120.645 96.7144 121.571 95.7878 121.571 94.643C121.571 93.4981 120.645 92.5715 119.5 92.5715Z" fill="#330505"/>
<path d="M98.7858 92.5715H65.643C64.4991 92.5715 63.5715 93.4981 63.5715 94.643C63.5715 95.7878 64.4991 96.7144 65.643 96.7144H98.7858C99.9307 96.7144 100.857 95.7878 100.857 94.643C100.857 93.4981 99.9307 92.5715 98.7858 92.5715Z" fill="#330505"/>
<path d="M65.643 105H82.2144C83.3593 105 84.2858 104.073 84.2858 102.929C84.2858 101.784 83.3593 100.857 82.2144 100.857H65.643C64.4991 100.857 63.5715 101.784 63.5715 102.929C63.5715 104.073 64.4991 105 65.643 105Z" fill="#330505"/>
<path d="M119.5 113.286H115.357C114.212 113.286 113.286 114.212 113.286 115.357C113.286 116.502 114.212 117.429 115.357 117.429H119.5C120.645 117.429 121.571 116.502 121.571 115.357C121.571 114.212 120.645 113.286 119.5 113.286Z" fill="#330505"/>
<path d="M98.7858 113.286H65.643C64.4991 113.286 63.5715 114.212 63.5715 115.357C63.5715 116.502 64.4991 117.429 65.643 117.429H98.7858C99.9307 117.429 100.857 116.502 100.857 115.357C100.857 114.212 99.9307 113.286 98.7858 113.286Z" fill="#330505"/>
<path d="M82.2144 121.572H65.643C64.4991 121.572 63.5715 122.498 63.5715 123.643C63.5715 124.788 64.4991 125.714 65.643 125.714H82.2144C83.3593 125.714 84.2858 124.788 84.2858 123.643C84.2858 122.498 83.3593 121.572 82.2144 121.572Z" fill="#330505"/>
</svg>
