<svg width="42" height="42" viewBox="0 0 42 42" fill="none" xmlns="http://www.w3.org/2000/svg">
<path fill-rule="evenodd" clip-rule="evenodd" d="M16.8204 6C15.8173 6 14.8806 6.5013 14.3242 7.3359L12.0117 10.8047C11.8262 11.0829 11.514 11.25 11.1796 11.25H5.5C3.84315 11.25 2.5 12.5931 2.5 14.25V33C2.5 34.6569 3.84315 36 5.5 36H36.5C38.1569 36 39.5 34.6569 39.5 33V14.25C39.5 12.5931 38.1569 11.25 36.5 11.25H30.8204C30.486 11.25 30.1738 11.0829 29.9883 10.8047L27.6758 7.3359C27.1194 6.50131 26.1827 6 25.1796 6H16.8204ZM15.9883 8.4453C16.1738 8.1671 16.486 8 16.8204 8H25.1796C25.514 8 25.8262 8.1671 26.0117 8.4453L28.3242 11.9141C28.8806 12.7487 29.8173 13.25 30.8204 13.25H36.5C37.0523 13.25 37.5 13.6977 37.5 14.25V33C37.5 33.5523 37.0523 34 36.5 34H5.5C4.94772 34 4.5 33.5523 4.5 33V14.25C4.5 13.6977 4.94772 13.25 5.5 13.25H11.1796C12.1827 13.25 13.1194 12.7487 13.6758 11.9141L15.9883 8.4453ZM16.75 22.75C16.75 20.4028 18.6528 18.5 21 18.5C23.3472 18.5 25.25 20.4028 25.25 22.75C25.25 25.0972 23.3472 27 21 27C18.6528 27 16.75 25.0972 16.75 22.75ZM21 16.5C17.5482 16.5 14.75 19.2982 14.75 22.75C14.75 26.2018 17.5482 29 21 29C24.4518 29 27.25 26.2018 27.25 22.75C27.25 19.2982 24.4518 16.5 21 16.5Z" fill="#0689FF"/>
</svg>
