<svg width="24" height="24" viewBox="0 0 24 24" fill="none" xmlns="http://www.w3.org/2000/svg">
<path fill-rule="evenodd" clip-rule="evenodd" d="M10.268 3C11.0378 1.66667 12.9623 1.66667 13.7321 3L20.6603 15C21.4301 16.3333 20.4678 18 18.9282 18H5.07183C3.53223 18 2.56998 16.3333 3.33978 15L10.268 3ZM12 7C12.5523 7 13 7.44771 13 8V11C13 11.5523 12.5523 12 12 12C11.4477 12 11 11.5523 11 11V8C11 7.44771 11.4477 7 12 7ZM13 14C13 13.4477 12.5523 13 12 13C11.4477 13 11 13.4477 11 14V15C11 15.5523 11.4477 16 12 16C12.5523 16 13 15.5523 13 15V14Z" fill="#C23931"/>
</svg>
