<svg width="16" height="16" viewBox="0 0 16 16" fill="none" xmlns="http://www.w3.org/2000/svg">
<path fill-rule="evenodd" clip-rule="evenodd" d="M6.33333 1.33325C6.33333 0.780967 5.88562 0.333252 5.33333 0.333252C4.78105 0.333252 4.33333 0.780967 4.33333 1.33325V2.33325H4C2.34314 2.33325 1 3.6764 1 5.33325V11.9999C1 13.6568 2.34315 14.9999 4 14.9999H12C13.6569 14.9999 15 13.6568 15 11.9999V5.33325C15 3.6764 13.6569 2.33325 12 2.33325H11.6667V1.33325C11.6667 0.780967 11.219 0.333252 10.6667 0.333252C10.1144 0.333252 9.66667 0.780967 9.66667 1.33325V2.33325H6.33333V1.33325ZM10.6667 4.33325H10.6674H12C12.5523 4.33325 13 4.78097 13 5.33325V6.33325H3V5.33325C3 4.78097 3.44772 4.33325 4 4.33325H5.33264H5.33333H5.33403H10.666H10.6667ZM3 8.33325V11.9999C3 12.5522 3.44772 12.9999 4 12.9999H12C12.5523 12.9999 13 12.5522 13 11.9999V8.33325H3Z" fill="#0689FF"/>
</svg>
