<svg width="65" height="65" viewBox="0 0 65 65" fill="none" xmlns="http://www.w3.org/2000/svg">
<rect x="1.22363" y="1.47656" width="63" height="63" rx="3.5" fill="#E8F4FF"/>
<rect x="1.22363" y="1.47656" width="63" height="63" rx="3.5" stroke="#0689FF" stroke-dasharray="10 10"/>
<path fill-rule="evenodd" clip-rule="evenodd" d="M28.544 17.9766C27.5409 17.9766 26.6042 18.4779 26.0478 19.3125L23.7353 22.7813C23.5499 23.0595 23.2376 23.2266 22.9033 23.2266H17.2236C15.5668 23.2266 14.2236 24.5697 14.2236 26.2266V44.9766C14.2236 46.6334 15.5668 47.9766 17.2236 47.9766H48.2236C49.8805 47.9766 51.2236 46.6334 51.2236 44.9766V26.2266C51.2236 24.5697 49.8805 23.2266 48.2236 23.2266H42.544C42.2096 23.2266 41.8974 23.0595 41.712 22.7813L39.3994 19.3125C38.843 18.4779 37.9063 17.9766 36.9033 17.9766H28.544ZM27.712 20.4219C27.8974 20.1437 28.2096 19.9766 28.544 19.9766H36.9033C37.2376 19.9766 37.5499 20.1437 37.7353 20.4219L40.0478 23.8907C40.6042 24.7253 41.5409 25.2266 42.544 25.2266H48.2236C48.7759 25.2266 49.2236 25.6743 49.2236 26.2266V44.9766C49.2236 45.5288 48.7759 45.9766 48.2236 45.9766H17.2236C16.6713 45.9766 16.2236 45.5288 16.2236 44.9766V26.2266C16.2236 25.6743 16.6713 25.2266 17.2236 25.2266H22.9033C23.9063 25.2266 24.843 24.7253 25.3994 23.8907L27.712 20.4219ZM28.4736 34.7266C28.4736 32.3794 30.3764 30.4766 32.7236 30.4766C35.0708 30.4766 36.9736 32.3794 36.9736 34.7266C36.9736 37.0738 35.0708 38.9766 32.7236 38.9766C30.3764 38.9766 28.4736 37.0738 28.4736 34.7266ZM32.7236 28.4766C29.2719 28.4766 26.4736 31.2748 26.4736 34.7266C26.4736 38.1783 29.2719 40.9766 32.7236 40.9766C36.1754 40.9766 38.9736 38.1783 38.9736 34.7266C38.9736 31.2748 36.1754 28.4766 32.7236 28.4766Z" fill="#0689FF"/>
</svg>
