<svg width="20" height="20" viewBox="0 0 20 20" fill="none" xmlns="http://www.w3.org/2000/svg">
<path d="M3.33341 17.5001C2.87508 17.5001 2.48286 17.337 2.15675 17.0109C1.83064 16.6848 1.6673 16.2923 1.66675 15.8334V6.66675C1.66675 6.20841 1.83008 5.81619 2.15675 5.49008C2.48341 5.16397 2.87564 5.00064 3.33341 5.00008H6.66675V3.33341C6.66675 2.87508 6.83008 2.48286 7.15675 2.15675C7.48341 1.83064 7.87564 1.6673 8.33341 1.66675H11.6667C12.1251 1.66675 12.5176 1.83008 12.8442 2.15675C13.1709 2.48341 13.334 2.87564 13.3334 3.33341V5.00008H16.6667C17.1251 5.00008 17.5176 5.16341 17.8442 5.49008C18.1709 5.81675 18.334 6.20897 18.3334 6.66675V15.8334C18.3334 16.2917 18.1704 16.6842 17.8442 17.0109C17.5181 17.3376 17.1256 17.5006 16.6667 17.5001H3.33341ZM8.33341 5.00008H11.6667V3.33341H8.33341V5.00008ZM16.6667 12.5001H12.5001V14.1667H7.50008V12.5001H3.33341V15.8334H16.6667V12.5001ZM9.16675 12.5001H10.8334V10.8334H9.16675V12.5001ZM3.33341 10.8334H7.50008V9.16675H12.5001V10.8334H16.6667V6.66675H3.33341V10.8334Z" fill="#0689FF"/>
</svg>
