<svg width="20" height="20" viewBox="0 0 20 20" fill="none" xmlns="http://www.w3.org/2000/svg">
<path d="M4.99992 15.8335V8.3335C4.99992 7.00741 5.5267 5.73564 6.46438 4.79796C7.40207 3.86028 8.67384 3.3335 9.99992 3.3335C11.326 3.3335 12.5978 3.86028 13.5355 4.79796C14.4731 5.73564 14.9999 7.00741 14.9999 8.3335V15.8335M4.99992 15.8335H14.9999M4.99992 15.8335H3.33325M14.9999 15.8335H16.6666M9.16659 18.3335H10.8333" stroke="#0689FF" stroke-width="2" stroke-linecap="round" stroke-linejoin="round"/>
<path d="M9.99984 3.33341C10.4601 3.33341 10.8332 2.96032 10.8332 2.50008C10.8332 2.03984 10.4601 1.66675 9.99984 1.66675C9.5396 1.66675 9.1665 2.03984 9.1665 2.50008C9.1665 2.96032 9.5396 3.33341 9.99984 3.33341Z" stroke="#0689FF" stroke-width="2"/>
</svg>
