<svg width="12" height="12" viewBox="0 0 12 12" fill="none" xmlns="http://www.w3.org/2000/svg">
<path d="M1.33333 0.833333H0.833333V1.33333V3.5H0.5V0.5H3.5V0.833333H1.33333ZM1.33333 11.1667H3.5V11.5H0.5V8.5H0.833333V10.6667V11.1667H1.33333ZM11.1667 1.33333V0.833333H10.6667H8.5V0.5H11.5V3.5H11.1667V1.33333ZM11.1667 10.6667V8.5H11.5V11.5H8.5V11.1667H10.6667H11.1667V10.6667ZM4.83333 3.16667V4.83333H3.16667V3.16667H4.83333ZM4.83333 7.16667V8.83333H3.16667V7.16667H4.83333ZM7.16667 4.83333V3.16667H8.83333V4.83333H7.16667ZM8.83333 7.16667V8.83333H7.16667V7.16667H8.83333Z" fill="#125D99" stroke="#125D99"/>
</svg>
