<svg width="20" height="20" viewBox="0 0 20 20" fill="none" xmlns="http://www.w3.org/2000/svg">
<path d="M14.9999 11.6666V9.16658H12.4999V7.49992H14.9999V4.99992H16.6666V7.49992H19.1666V9.16658H16.6666V11.6666H14.9999ZM7.49992 9.99992C6.58325 9.99992 5.79853 9.67353 5.14575 9.02075C4.49297 8.36797 4.16659 7.58325 4.16659 6.66659C4.16659 5.74992 4.49297 4.9652 5.14575 4.31242C5.79853 3.65964 6.58325 3.33325 7.49992 3.33325C8.41659 3.33325 9.20131 3.65964 9.85409 4.31242C10.5069 4.9652 10.8333 5.74992 10.8333 6.66659C10.8333 7.58325 10.5069 8.36797 9.85409 9.02075C9.20131 9.67353 8.41659 9.99992 7.49992 9.99992ZM0.833252 16.6666V14.3333C0.833252 13.861 0.954919 13.4271 1.19825 13.0316C1.44159 12.636 1.76436 12.3338 2.16659 12.1249C3.0277 11.6944 3.9027 11.3716 4.79159 11.1566C5.68047 10.9416 6.58325 10.8338 7.49992 10.8333C8.41659 10.8333 9.31936 10.941 10.2083 11.1566C11.0971 11.3721 11.9721 11.6949 12.8333 12.1249C13.236 12.3333 13.5591 12.6355 13.8024 13.0316C14.0458 13.4277 14.1671 13.8616 14.1666 14.3333V16.6666H0.833252ZM2.49992 14.9999H12.4999V14.3333C12.4999 14.1805 12.4619 14.0416 12.3858 13.9166C12.3096 13.7916 12.2088 13.6944 12.0833 13.6249C11.3333 13.2499 10.5763 12.9688 9.81242 12.7816C9.04853 12.5944 8.2777 12.5005 7.49992 12.4999C6.72214 12.4999 5.95131 12.5938 5.18742 12.7816C4.42353 12.9694 3.66659 13.2505 2.91659 13.6249C2.79159 13.6944 2.69075 13.7916 2.61409 13.9166C2.53742 14.0416 2.49936 14.1805 2.49992 14.3333V14.9999ZM7.49992 8.33325C7.95825 8.33325 8.35075 8.1702 8.67742 7.84409C9.00409 7.51797 9.16714 7.12547 9.16659 6.66659C9.16659 6.20825 9.00353 5.81603 8.67742 5.48992C8.35131 5.16381 7.95881 5.00047 7.49992 4.99992C7.04159 4.99992 6.64936 5.16325 6.32325 5.48992C5.99714 5.81659 5.83381 6.20881 5.83325 6.66659C5.83325 7.12492 5.99659 7.51742 6.32325 7.84409C6.64992 8.17075 7.04214 8.33381 7.49992 8.33325Z" fill="#0689FF"/>
</svg>
